# File created by Blade
# Date/Time:  Fri Jan 16 19:32:17 2015
# Frame Rate: 120.000 fps
#------------------------------------------------------
:FULLY-SPECIFIED
:DEGREES
922
root 19.786300 35.550250 -20.924394 9.967227 12.730949 0.133294
Spine -19.411683 -7.700159 -0.815136
Head 15.198713 -6.047794 4.818214
LeftShoulder -11.659394 -6.606996 7.068740
LeftArm -33.543752 41.256696 -65.361976
LeftForeArm 21.256126 0.000000 20.510743
LeftHand 3.735635 -0.000000 -23.357127
LeftHandThumb1 -26.253704 0.000000 33.147579
RightShoulder -11.582466 0.536013 -19.738121
RightArm -359.788668 47.323431 -357.511388
RightForeArm -33.526251 -0.000000 2.618154
RightHand -3.359709 -0.000000 0.036017
RightHandThumb1 -24.326973 -0.000000 -32.862282
LeftUpLeg -2.700900 -0.475971 0.960628
LeftLeg -6.540811 -0.000000 0.000000
LeftFoot -18.454615 26.528024 -12.376654
LeftToeBase 25.694485 -0.000000 -0.000000
RightUpLeg 0.272685 -17.385721 -1.099478
RightLeg -4.328134 -0.000000 0.000000
RightFoot -22.520577 -25.526410 20.521474
RightToeBase 24.076014 -0.000000 -0.000000
923
root 19.779570 35.549618 -20.928519 9.994865 12.853690 0.137340
Spine -19.494329 -7.631118 -0.811588
Head 15.149566 -6.125306 4.665359
LeftShoulder -11.847326 -7.085418 7.321879
LeftArm -31.383751 39.642356 -62.133493
LeftForeArm 19.948900 -0.000000 20.041401
LeftHand 3.210139 0.000000 -22.668321
LeftHandThumb1 -26.253704 0.000000 33.147579
RightShoulder -11.648468 0.366701 -19.695281
RightArm -359.684470 47.464767 -357.177915
RightForeArm -33.585752 -0.000000 2.629466
RightHand -3.356016 -0.000000 0.219247
RightHandThumb1 -24.326973 -0.000000 -32.862282
LeftUpLeg -2.758866 -0.573743 0.985526
LeftLeg -6.531188 -0.000000 0.000000
LeftFoot -18.424974 26.517937 -12.340067
LeftToeBase 25.675161 -0.000000 -0.000000
RightUpLeg 0.251809 -17.472476 -1.068933
RightLeg -4.324052 -0.000000 0.000000
RightFoot -22.552239 -25.541016 20.540093
RightToeBase 24.084736 -0.000000 -0.000000
924
root 19.775008 35.548358 -20.930439 9.998566 12.945696 0.144274
Spine -19.555818 -7.543099 -0.806181
Head 15.104739 -6.220650 4.471993
LeftShoulder -11.973602 -7.592358 7.566286
LeftArm -29.615528 38.151932 -59.359895
LeftForeArm 19.383751 0.000000 19.604134
LeftHand 3.343399 -0.000000 -21.467057
LeftHandThumb1 -26.253704 0.000000 33.147579
RightShoulder -11.618109 0.391351 -19.653764
RightArm -359.728589 47.306225 -357.039784
RightForeArm -33.562021 -0.000000 2.553216
RightHand -3.286134 0.000000 0.374341
RightHandThumb1 -24.326973 -0.000000 -32.862282
LeftUpLeg -2.775142 -0.644465 0.999071
LeftLeg -6.539985 -0.000000 0.000000
LeftFoot -18.404442 26.519606 -12.298163
LeftToeBase 25.727064 -0.000000 -0.000000
RightUpLeg 0.262152 -17.534381 -1.055775
RightLeg -4.329569 -0.000000 0.000000
RightFoot -22.567399 -25.568769 20.524662
RightToeBase 24.078741 -0.000000 -0.000000
925
root 19.770135 35.547759 -20.932489 10.002773 13.026484 0.157261
Spine -19.622163 -7.462791 -0.813958
Head 15.107278 -6.341887 4.282124
LeftShoulder -12.124223 -8.005104 7.740192
LeftArm -27.721623 36.716410 -56.547793
LeftForeArm 18.396448 -0.000000 19.106400
LeftHand 3.390906 -0.000000 -20.626283
LeftHandThumb1 -26.253704 0.000000 33.147579
RightShoulder -11.612602 0.247632 -19.600253
RightArm -359.712342 47.298413 -356.787091
RightForeArm -33.654512 0.000000 2.563139
RightHand -3.317209 -0.000000 0.540448
RightHandThumb1 -24.326973 -0.000000 -32.862282
LeftUpLeg -2.792209 -0.703487 1.003370
LeftLeg -6.539004 -0.000000 0.000000
LeftFoot -18.390417 26.513365 -12.302540
LeftToeBase 25.729914 -0.000000 -0.000000
RightUpLeg 0.268005 -17.581184 -1.048235
RightLeg -4.332059 -0.000000 0.000000
RightFoot -22.594969 -25.616009 20.516146
RightToeBase 24.058208 -0.000000 -0.000000
926
root 19.765310 35.546666 -20.933910 10.009428 13.099193 0.162571
Spine -19.691887 -7.412547 -0.803670
Head 15.061461 -6.365828 4.137350
LeftShoulder -12.283596 -8.480304 7.925962
LeftArm -26.031385 35.349889 -53.973421
LeftForeArm 17.728329 -0.000000 18.674003
LeftHand 3.394974 -0.000000 -19.913639
LeftHandThumb1 -26.253704 0.000000 33.147579
RightShoulder -11.568403 0.157266 -19.533603
RightArm -359.700798 47.285098 -356.563735
RightForeArm -33.900736 -0.000000 2.559507
RightHand -3.273123 -0.000000 0.682382
RightHandThumb1 -24.326973 -0.000000 -32.862282
LeftUpLeg -2.803402 -0.769035 1.019143
LeftLeg -6.557791 -0.000000 0.000000
LeftFoot -18.366248 26.501807 -12.299441
LeftToeBase 25.700346 -0.000000 -0.000000
RightUpLeg 0.268095 -17.633541 -1.033781
RightLeg -4.330041 -0.000000 0.000000
RightFoot -22.606783 -25.640861 20.491860
RightToeBase 24.050922 -0.000000 -0.000000
927
root 19.767896 35.545463 -20.925975 9.954813 13.081759 0.203643
Spine -19.707494 -7.282926 -0.853553
Head 15.042574 -6.329980 4.014867
LeftShoulder -12.425351 -8.943498 8.060542
LeftArm -24.549775 34.110170 -51.551175
LeftForeArm 17.167898 -0.000000 18.463998
LeftHand 3.380671 -0.000000 -18.931588
LeftHandThumb1 -26.253704 0.000000 33.147579
RightShoulder -11.531024 0.064885 -19.468033
RightArm -359.590274 47.154316 -356.279829
RightForeArm -33.759561 -0.000000 2.434537
RightHand -3.102238 -0.000000 0.626769
RightHandThumb1 -24.326973 -0.000000 -32.862282
LeftUpLeg -2.687550 -0.726122 0.968504
LeftLeg -6.630961 -0.000000 0.000000
LeftFoot -18.325427 26.479784 -12.327601
LeftToeBase 25.680497 -0.000000 -0.000000
RightUpLeg 0.360082 -17.630969 -1.102888
RightLeg -4.352802 -0.000000 0.000000
RightFoot -22.617904 -25.640043 20.440340
RightToeBase 24.117028 -0.000000 -0.000000
928
root 19.767803 35.544226 -20.921036 9.926504 13.066250 0.221833
Spine -19.752957 -7.161195 -0.857375
Head 15.045065 -6.303864 3.820033
LeftShoulder -12.586543 -9.217796 8.141086
LeftArm -22.909093 32.866126 -49.149638
LeftForeArm 16.564972 0.000000 18.271806
LeftHand 3.247903 -0.000000 -18.014183
LeftHandThumb1 -26.253704 0.000000 33.147579
RightShoulder -11.485682 0.026832 -19.442473
RightArm -359.518686 46.966569 -356.003084
RightForeArm -33.784757 -0.000000 2.382427
RightHand -3.090807 -0.000000 0.634171
RightHandThumb1 -24.326973 -0.000000 -32.862282
LeftUpLeg -2.613576 -0.710831 0.946913
LeftLeg -6.695158 -0.000000 0.000000
LeftFoot -18.305240 26.476559 -12.369760
LeftToeBase 25.643887 -0.000000 -0.000000
RightUpLeg 0.410008 -17.609045 -1.134874
RightLeg -4.370332 -0.000000 0.000000
RightFoot -22.615482 -25.652277 20.422424
RightToeBase 24.130652 -0.000000 -0.000000
929
root 19.758059 35.543915 -20.931031 9.976085 13.106475 0.224228
Spine -19.846150 -7.079413 -0.851633
Head 15.007347 -6.386944 3.607887
LeftShoulder -12.739458 -9.533310 8.238785
LeftArm -21.302024 31.685633 -46.866932
LeftForeArm 16.147075 -0.000000 18.096509
LeftHand 3.035879 0.000000 -17.180820
LeftHandThumb1 -26.253704 0.000000 33.147579
RightShoulder -11.479695 0.031099 -19.394540
RightArm -359.445038 47.002422 -355.731441
RightForeArm -34.023593 -0.000000 2.328888
RightHand -3.099562 0.000000 0.713834
RightHandThumb1 -24.326973 -0.000000 -32.862282
LeftUpLeg -2.695719 -0.763741 0.966928
LeftLeg -6.680241 -0.000000 0.000000
LeftFoot -18.300421 26.495403 -12.353148
LeftToeBase 25.681493 -0.000000 -0.000000
RightUpLeg 0.339198 -17.606457 -1.095411
RightLeg -4.361540 -0.000000 0.000000
RightFoot -22.636462 -25.709842 20.390554
RightToeBase 24.094519 -0.000000 -0.000000
930
root 19.750619 35.543016 -20.934758 9.987016 13.126411 0.229394
Spine -19.913600 -6.972648 -0.853449
Head 14.978184 -6.405229 3.402065
LeftShoulder -12.825249 -9.874470 8.313903
LeftArm -19.875911 30.510175 -44.704674
LeftForeArm 16.074241 -0.000000 17.993375
LeftHand 2.966453 -0.000000 -16.416258
LeftHandThumb1 -26.253704 0.000000 33.147579
RightShoulder -11.483220 -0.021318 -19.363440
RightArm -359.404826 47.017851 -355.453571
RightForeArm -34.188735 -0.000000 2.346807
RightHand -3.066615 -0.000000 0.903928
RightHandThumb1 -24.326973 -0.000000 -32.862282
LeftUpLeg -2.713627 -0.788398 0.976961
LeftLeg -6.684373 -0.000000 0.000000
LeftFoot -18.286787 26.497822 -12.360749
LeftToeBase 25.652440 -0.000000 -0.000000
RightUpLeg 0.327821 -17.601560 -1.082373
RightLeg -4.368001 -0.000000 0.000000
RightFoot -22.648774 -25.738772 20.364493
RightToeBase 24.078663 -0.000000 -0.000000
931
root 19.744519 35.542086 -20.937587 10.002336 13.135957 0.237360
Spine -19.985697 -6.882929 -0.851387
Head 14.950588 -6.349798 3.216563
LeftShoulder -12.978120 -10.212881 8.419858
LeftArm -18.396821 29.248478 -42.608611
LeftForeArm 16.275995 0.000000 17.837332
LeftHand 2.853051 -0.000000 -15.693701
LeftHandThumb1 -26.253704 0.000000 33.147579
RightShoulder -11.452613 -0.068182 -19.316931
RightArm -359.316829 46.934523 -355.170597
RightForeArm -34.251682 0.000000 2.304205
RightHand -3.251135 -0.000000 1.075612
RightHandThumb1 -24.326973 -0.000000 -32.862282
LeftUpLeg -2.734411 -0.798183 0.981175
LeftLeg -6.686916 -0.000000 0.000000
LeftFoot -18.263955 26.502380 -12.325184
LeftToeBase 25.688586 -0.000000 -0.000000
RightUpLeg 0.314845 -17.610141 -1.072558
RightLeg -4.381270 -0.000000 0.000000
RightFoot -22.666280 -25.753936 20.339848
RightToeBase 24.122284 -0.000000 -0.000000
932
root 19.737512 35.541131 -20.940659 10.019538 13.136870 0.239241
Spine -20.052165 -6.779190 -0.850180
Head 14.914628 -6.357644 3.008188
LeftShoulder -13.090326 -10.685906 8.564197
LeftArm -17.121728 28.160000 -40.705486
LeftForeArm 16.529821 0.000000 17.697692
LeftHand 2.670057 0.000000 -14.871821
LeftHandThumb1 -26.253704 0.000000 33.147579
RightShoulder -11.455055 -0.156698 -19.254004
RightArm -359.250504 46.958243 -354.903263
RightForeArm -34.390321 -0.000000 2.297468
RightHand -3.208877 -0.000000 1.288073
RightHandThumb1 -24.326973 -0.000000 -32.862282
LeftUpLeg -2.762097 -0.803010 0.990967
LeftLeg -6.679492 -0.000000 0.000000
LeftFoot -18.266683 26.508492 -12.301450
LeftToeBase 25.721663 -0.000000 -0.000000
RightUpLeg 0.294629 -17.603318 -1.057274
RightLeg -4.390098 -0.000000 0.000000
RightFoot -22.664793 -25.771632 20.304899
RightToeBase 24.126792 -0.000000 -0.000000
